<svg width="61" height="60" viewBox="0 0 61 60" fill="none" xmlns="http://www.w3.org/2000/svg">
<g clip-path="url(#clip0_105207_2231)">
<path d="M50.3098 25.2147L31.0964 36.1589C30.7506 36.3624 30.3234 36.3624 29.9674 36.1589L10.754 25.2147C10.0013 24.7875 10.0013 23.6992 10.754 23.2618L29.9674 12.3176C30.3132 12.1142 30.7404 12.1142 31.0964 12.3176L50.3098 23.2618C51.0625 23.689 51.0625 24.7773 50.3098 25.2147Z" fill="black"/>
<path d="M46.984 28.8965V37.9184C46.984 38.3252 46.7704 38.6914 46.4144 38.8948L31.0965 47.6217C30.7507 47.8251 30.3235 47.8251 29.9675 47.6217L14.6497 38.8948C14.2937 38.6914 14.0801 38.3252 14.0801 37.9184V28.8965L22.573 33.7278L29.9675 37.9489C30.3133 38.1523 30.7405 38.1523 31.0965 37.9489L38.491 33.7278L46.984 28.8965Z" fill="black"/>
<path d="M55.935 14.0058L56.464 13.6397C57.1047 13.1921 57.0234 12.2259 56.3216 11.8902L52.1107 9.88648C51.3987 9.55083 50.5952 10.1102 50.6562 10.8934L51.063 15.5417C51.1342 16.3147 52.0191 16.7317 52.6599 16.2842L53.4126 15.7654C60.1052 26.5469 58.3049 40.9087 48.9474 49.6559C39.7425 58.2608 25.5536 59.3084 15.2095 52.1479C14.5179 51.6698 13.5618 51.8427 13.0837 52.5344C12.6057 53.226 12.7786 54.1821 13.4702 54.6602C18.5863 58.1998 24.5365 59.939 30.4765 59.939C37.9117 59.939 45.3265 57.2131 51.0325 51.8834C61.4784 42.1089 63.4923 26.0282 55.935 14.0058Z" fill="black"/>
<path d="M47.5941 5.27897C36.0803 -2.69527 20.2844 -1.52558 10.0318 8.05571C-0.678462 18.0744 -2.60082 34.0838 5.38358 46.3096L4.64108 46.8182C4.0003 47.2657 4.08167 48.232 4.78348 48.5677L8.99436 50.5714C9.70635 50.907 10.5099 50.3476 10.4488 49.5644L10.042 44.9162C9.9708 44.1432 9.08591 43.7262 8.44512 44.1737L7.89587 44.5602C0.796364 33.5855 2.5153 19.2542 12.1169 10.2832C21.3219 1.67835 35.5107 0.620548 45.8549 7.79126C46.5465 8.2693 47.5026 8.09639 47.9806 7.40475C48.4587 6.71311 48.2858 5.75701 47.5941 5.27897Z" fill="black"/>
</g>
<defs>
<clipPath id="clip0_105207_2231">
<rect width="60" height="59.939" fill="white" transform="translate(0.481445)"/>
</clipPath>
</defs>
</svg>
